<?xml version="1.0" encoding="utf-8"?>
<!-- Generator: Adobe Illustrator 25.0.0, SVG Export Plug-In . SVG Version: 6.00 Build 0)  -->
<svg version="1.1" id="Layer_1" xmlns="http://www.w3.org/2000/svg" xmlns:xlink="http://www.w3.org/1999/xlink" x="0px" y="0px"
	 viewBox="0 0 194 194" style="enable-background:new 0 0 194 194;" xml:space="preserve">
<style type="text/css">
	.st0{fill:#FFFFFF;}
</style>
<circle cx="97" cy="97" r="97"/>
<path class="st0" d="M128.4,111.1c9.8,4.4,11.3-3.3,28.8-6.4c10.7-1.9,26.1-3.3,37-5.2c-71.1,1-33-5.2-67.6-18.7
	c5.5-36.8-18.9-6.8,17.6-67.9c-7,8.5-16,21.2-23,29.5c-11.5,13.6-18.9,11-20,21.7c-0.1,1.6-0.9,3.1-4,3.1s-4-1.5-4-3.1
	c-1.1-10.7-8.5-8.1-20-21.7c-7-8.3-16-21-23-29.5c36.4,61.1,12,31.2,17.6,67.9c-34.6,13.6,3.5,19.8-67.6,18.8
	c10.9,1.8,26.3,3.2,37,5.2c17.5,3.2,19,10.9,28.8,6.4c1.4-0.7,3.2-0.8,4.7,1.9c1.6,2.7,0.7,4.2-0.7,5c-8.8,6.3-2.8,11.4-8.8,28.1
	c-3.7,10.2-10.2,24.3-14,34.6c34.7-62.1,21-26,50-49.2c29.1,23.2,15.3-12.9,50.1,49.2c-3.9-10.3-10.4-24.4-14-34.6
	c-6-16.7-0.1-21.9-8.8-28.1c-1.3-0.9-2.3-2.3-0.7-5.1C125.3,110.3,127,110.3,128.4,111.1z M117.8,126c2.5,1.4,4.7,4.6,5.9,7.5
	c0.3,0.8,0.6,1.7,0.9,2.5c-2-1.9-4.2-3.1-6.4-3.3c-5.6-0.5-17.2-6-20.9-9.7c-3.7,3.7-15.3,9.1-20.9,9.7c-2.3,0.2-4.4,1.4-6.4,3.3
	c0.3-0.8,0.6-1.7,0.9-2.5c1.1-2.8,3.4-6.1,5.9-7.5c5.6-4,6.4-10.4,2.2-17.7c-4.2-7.2-10.2-9.7-16.4-6.9c-2.5,1.5-6.4,1.8-9.4,1.4
	c-0.9-0.2-1.7-0.4-2.6-0.5c2.7-0.8,4.8-2.1,6.1-3.9c3.3-4.6,13.8-11.9,18.8-13.3c-1.3-5-0.2-17.8,2.1-23c0.9-2.1,1-4.5,0.3-7.2
	c0.6,0.7,1.1,1.3,1.7,2c1.9,2.4,3.6,6,3.5,8.8c0.7,6.8,5.8,10.8,14.2,10.8s13.5-4,14.2-10.8c0-2.9,1.6-6.4,3.5-8.8
	c0.6-0.7,1.2-1.3,1.7-2c-0.6,2.7-0.6,5.2,0.3,7.2c2.3,5.1,3.4,17.9,2.1,23c5,1.4,15.6,8.7,18.8,13.3c1.3,1.8,3.4,3.1,6.1,3.9
	c-0.9,0.2-1.7,0.3-2.6,0.5c-3,0.4-6.9,0.1-9.4-1.4c-6.2-2.8-12.3-0.3-16.4,6.9C111.4,115.5,112.3,122,117.8,126z"/>
</svg>
